<svg width="61" height="65" viewBox="0 0 61 65" fill="none" xmlns="http://www.w3.org/2000/svg">
<path d="M48.0083 11.8846C44.5121 10.1997 40.799 8.97169 36.9233 8.28632C36.4354 9.17161 35.8933 10.371 35.5139 11.3134C31.3916 10.6851 27.2991 10.6851 23.2337 11.3134C22.8542 10.371 22.285 9.17161 21.8243 8.28632C17.9215 8.97169 14.2085 10.1997 10.7366 11.8846C3.71703 22.7935 1.81984 33.4454 2.76843 43.9546C7.43009 47.5243 11.9292 49.6947 16.3496 51.1227C17.4337 49.5805 18.4095 47.9241 19.2496 46.1822C17.6506 45.5539 16.1328 44.7828 14.6693 43.8689C15.0487 43.5835 15.4282 43.2693 15.7805 42.9552C24.616 47.2103 34.186 47.2103 42.9129 42.9552C43.2924 43.2693 43.6447 43.5835 44.0242 43.8689C42.5606 44.7828 41.0429 45.5539 39.4438 46.1822C40.284 47.9241 41.2598 49.5805 42.3437 51.1227C46.7615 49.6947 51.2877 47.5243 55.9249 43.9546C57.0902 31.7892 54.0793 21.223 48.0083 11.8846ZM20.4692 37.4721C17.8131 37.4721 15.6449 34.9305 15.6449 31.8178C15.6449 28.705 17.7589 26.1633 20.4692 26.1633C23.1524 26.1633 25.3476 28.705 25.2934 31.8178C25.2934 34.9305 23.1524 37.4721 20.4692 37.4721ZM38.2785 37.4721C35.6223 37.4721 33.4514 34.9305 33.4514 31.8178C33.4514 28.705 35.5681 26.1633 38.2785 26.1633C40.9616 26.1633 43.1569 28.705 43.1027 31.8178C43.1027 34.9305 40.9887 37.4721 38.2785 37.4721Z" fill="black"/>
</svg>
