<svg width="61" height="65" viewBox="0 0 61 65" fill="none" xmlns="http://www.w3.org/2000/svg">
<path d="M5.08179 32.1273C5.08179 43.557 11.8808 53.3157 21.4493 57.1553C21.2164 55.0648 20.9686 51.6178 21.5022 49.1994C21.9617 47.12 24.4687 35.9513 24.4687 35.9513C24.4687 35.9513 23.7128 34.3561 23.7128 31.9934C23.7128 28.2899 25.7497 25.5233 28.2885 25.5233C30.4482 25.5233 31.49 27.2301 31.49 29.276C31.49 31.5628 30.1073 34.9808 29.3938 38.1511C28.7988 40.8039 30.6579 42.968 33.1395 42.968C37.6347 42.968 41.0924 37.9727 41.0924 30.7619C41.0924 24.3788 36.739 19.9189 30.5245 19.9189C23.3295 19.9189 19.1053 25.6059 19.1053 31.4847C19.1053 33.776 19.9417 36.2302 20.9877 37.5666C21.0769 37.6675 21.1399 37.791 21.1707 37.925C21.2014 38.059 21.199 38.1991 21.1634 38.3319C20.9708 39.1752 20.543 40.9846 20.4605 41.3549C20.3482 41.8413 20.0942 41.9462 19.6135 41.7097C16.4543 40.1613 14.4809 35.2954 14.4809 31.3866C14.4809 22.9777 20.2763 15.2582 31.1915 15.2582C39.966 15.2582 46.7861 21.8466 46.7861 30.6503C46.7861 39.8356 41.2915 47.2293 33.6603 47.2293C31.0962 47.2293 28.6887 45.8238 27.8629 44.1661C27.8629 44.1661 26.5946 49.2574 26.2876 50.5023C25.6904 52.9208 24.0346 55.9818 23.0077 57.7198C25.375 58.4873 27.8862 58.9 30.4906 58.9C44.5226 58.9 55.8994 46.9125 55.8994 32.1273C55.8994 17.342 44.5226 5.35455 30.4906 5.35455C16.4586 5.35455 5.08179 17.342 5.08179 32.1273Z" fill="black"/>
</svg>
