<svg width="61" height="65" viewBox="0 0 61 65" fill="none" xmlns="http://www.w3.org/2000/svg">
<path d="M55.8994 15.8618C54.0306 16.7343 52.0231 17.3239 49.9126 17.5904C52.0656 16.232 53.7173 14.0766 54.4961 11.5109C52.4819 12.7702 50.2505 13.6852 47.8759 14.1757C45.9736 12.0439 43.2655 10.7091 40.2665 10.7091C34.5102 10.7091 29.8415 15.6283 29.8415 21.6984C29.8415 22.5567 29.9355 23.3915 30.1101 24.1981C21.4421 23.7382 13.7633 19.3637 8.62017 12.7183C7.72495 14.3455 7.21019 16.232 7.21019 18.2412C7.21019 22.0521 9.05212 25.4172 11.8475 27.3864C10.1376 27.3274 8.53065 26.8345 7.12514 26.0115V26.153C7.12514 31.4755 10.7172 35.916 15.4888 36.9253C14.6115 37.1753 13.6916 37.3073 12.7427 37.3073C12.0713 37.3073 11.4155 37.2413 10.7799 37.114C12.1071 41.4766 15.9566 44.6555 20.52 44.7404C16.9503 47.6882 12.454 49.445 7.57052 49.445C6.72901 49.445 5.89868 49.3931 5.08179 49.2917C9.69669 52.4116 15.1755 54.2275 21.0616 54.2275C40.2419 54.2275 50.7272 37.4889 50.7272 22.9718C50.7272 22.5001 50.716 22.0238 50.6959 21.5521C52.7325 20.0004 54.5006 18.0691 55.8949 15.8689L55.8994 15.8618Z" fill="black"/>
</svg>
