<svg width="61" height="65" viewBox="0 0 61 65" fill="none" xmlns="http://www.w3.org/2000/svg">
<path d="M48.3353 49.4329C27.3607 59.9509 14.3436 51.1508 6.01101 45.8058C5.49539 45.469 4.61901 45.8846 5.37939 46.8048C8.15541 50.3515 17.253 58.9 29.128 58.9C41.0112 58.9 48.0806 52.0679 48.965 50.8761C49.8433 49.6944 49.2229 49.0425 48.3351 49.4329H48.3353ZM54.226 46.0051C53.6627 45.2323 50.801 45.0882 49 45.3213C47.1963 45.5477 44.4888 46.7093 44.7242 47.4067C44.845 47.668 45.0915 47.5508 46.3307 47.4334C47.5732 47.3028 51.0539 46.8399 51.7792 47.8389C52.5079 48.8449 50.6691 53.6369 50.3332 54.4098C50.0088 55.1826 50.4572 55.3819 51.0667 54.8672C51.6678 54.3526 52.7561 53.0201 53.4864 51.1344C54.2116 49.2384 54.6539 46.5936 54.2258 46.0051H54.226Z" fill="black"/>
<path fill-rule="evenodd" clip-rule="evenodd" d="M34.2322 27.9711C34.2322 30.7308 34.2984 33.0323 32.9745 35.4831C31.906 37.4759 30.2135 38.7014 28.3224 38.7014C25.7409 38.7014 24.2375 36.629 24.2375 33.5704C24.2375 27.5326 29.3718 26.4367 34.2322 26.4367V27.9711ZM41.0118 45.2373C40.5673 45.6557 39.9244 45.6857 39.4233 45.4066C37.1918 43.4539 36.7946 42.5473 35.5654 40.6841C31.8777 44.6495 29.2679 45.835 24.4835 45.835C18.829 45.835 14.4226 42.1586 14.4226 34.7958C14.4226 29.0472 17.3824 25.1315 21.5898 23.2187C25.2398 21.5248 30.3365 21.2259 34.2322 20.7578V19.8411C34.2322 18.1572 34.355 16.1647 33.419 14.7101C32.5963 13.4049 31.0267 12.8669 29.646 12.8669C27.0837 12.8669 24.7954 14.2517 24.2375 17.1211C24.1239 17.7589 23.6796 18.3866 23.0745 18.4164L16.55 17.6793C16.0017 17.5495 15.3966 17.0814 15.5479 16.1945C17.0513 7.86544 24.1901 5.35455 30.582 5.35455C33.8537 5.35455 38.1276 6.27125 40.7091 8.88169C43.9808 12.0997 43.6686 16.3938 43.6686 21.0665V32.1058C43.6686 35.4235 44.9735 36.878 46.2027 38.6715C46.6376 39.3091 46.7323 40.0765 46.1838 40.5545C44.8127 41.76 42.3731 44.0018 41.0305 45.2573L41.0116 45.2373" fill="black"/>
<path d="M48.3353 49.4329C27.3607 59.9509 14.3436 51.1508 6.01101 45.8058C5.49539 45.469 4.61901 45.8846 5.37939 46.8048C8.15541 50.3515 17.253 58.9 29.128 58.9C41.0112 58.9 48.0806 52.0679 48.965 50.8761C49.8433 49.6944 49.2229 49.0425 48.3351 49.4329H48.3353ZM54.226 46.0051C53.6627 45.2323 50.801 45.0882 49 45.3213C47.1963 45.5477 44.4888 46.7093 44.7242 47.4067C44.845 47.668 45.0915 47.5508 46.3307 47.4334C47.5732 47.3028 51.0539 46.8399 51.7792 47.8389C52.5079 48.8449 50.6691 53.6369 50.3332 54.4098C50.0088 55.1826 50.4572 55.3819 51.0667 54.8672C51.6678 54.3526 52.7561 53.0201 53.4864 51.1344C54.2116 49.2384 54.6539 46.5936 54.2258 46.0051H54.226Z" fill="black"/>
<path fill-rule="evenodd" clip-rule="evenodd" d="M34.2322 27.9711C34.2322 30.7308 34.2984 33.0323 32.9745 35.4831C31.906 37.4759 30.2135 38.7014 28.3224 38.7014C25.7409 38.7014 24.2375 36.629 24.2375 33.5704C24.2375 27.5326 29.3718 26.4367 34.2322 26.4367V27.9711ZM41.0118 45.2373C40.5673 45.6557 39.9244 45.6857 39.4233 45.4066C37.1918 43.4539 36.7946 42.5473 35.5654 40.6841C31.8777 44.6495 29.2679 45.835 24.4835 45.835C18.829 45.835 14.4226 42.1586 14.4226 34.7958C14.4226 29.0472 17.3824 25.1315 21.5898 23.2187C25.2398 21.5248 30.3365 21.2259 34.2322 20.7578V19.8411C34.2322 18.1572 34.355 16.1647 33.419 14.7101C32.5963 13.4049 31.0267 12.8669 29.646 12.8669C27.0837 12.8669 24.7954 14.2517 24.2375 17.1211C24.1239 17.7589 23.6796 18.3866 23.0745 18.4164L16.55 17.6793C16.0017 17.5495 15.3966 17.0814 15.5479 16.1945C17.0513 7.86544 24.1901 5.35455 30.582 5.35455C33.8537 5.35455 38.1276 6.27125 40.7091 8.88169C43.9808 12.0997 43.6686 16.3938 43.6686 21.0665V32.1058C43.6686 35.4235 44.9735 36.878 46.2027 38.6715C46.6376 39.3091 46.7323 40.0765 46.1838 40.5545C44.8127 41.76 42.3731 44.0018 41.0305 45.2573L41.0116 45.2373" fill="black"/>
</svg>
