<svg width="61" height="65" viewBox="0 0 61 65" fill="none" xmlns="http://www.w3.org/2000/svg">
<path fill-rule="evenodd" clip-rule="evenodd" d="M30.4945 5.35455C16.1818 5.35455 5.08179 16.4022 5.08179 31.3272C5.08179 39.1333 8.11916 45.8768 13.0607 50.5338C13.4716 50.9256 13.7227 51.4672 13.7422 52.0581L13.8824 56.8238C13.8924 57.1742 13.9841 57.5167 14.1494 57.8209C14.3146 58.1252 14.5483 58.382 14.8299 58.5686C15.1116 58.7553 15.4324 58.8661 15.7642 58.8914C16.0961 58.9166 16.4287 58.8555 16.7328 58.7133L21.7776 56.3705C22.2079 56.1735 22.6849 56.1345 23.1327 56.2617C25.4497 56.9326 27.9166 57.2957 30.4867 57.2957C44.7993 57.2957 55.8994 46.2502 55.8994 31.3251C55.8994 16.4022 44.8013 5.35455 30.4945 5.35455ZM43.8375 25.6444L37.4746 36.2776C37.2351 36.6778 36.9196 37.0215 36.5479 37.2869C36.1761 37.5523 35.7563 37.7337 35.3147 37.8196C34.8731 37.9056 34.4195 37.8943 33.9823 37.7863C33.5451 37.6784 33.1338 37.4762 32.7745 37.1926L27.7122 33.1961C27.4867 33.0187 27.2128 32.9228 26.9314 32.9228C26.65 32.9228 26.3761 33.0187 26.1507 33.1961L19.3205 38.6594C18.4151 39.3877 17.2177 38.2368 17.8251 37.2233L24.188 26.5902C24.4275 26.1899 24.743 25.8462 25.1148 25.5808C25.4865 25.3154 25.9064 25.134 26.3479 25.0481C26.7895 24.9621 27.2432 24.9735 27.6804 25.0814C28.1176 25.1893 28.5288 25.3915 28.8882 25.6752L33.9505 29.6716C34.1759 29.8491 34.4498 29.945 34.7312 29.945C35.0127 29.945 35.2865 29.8491 35.512 29.6716L42.3422 24.2083C43.2573 23.4697 44.4547 24.6207 43.8375 25.6444Z" fill="black"/>
</svg>
