<svg width="61" height="65" viewBox="0 0 61 65" fill="none" xmlns="http://www.w3.org/2000/svg">
<path d="M55.7158 44.3371C55.3634 43.3227 54.6885 42.7841 53.9242 42.3344C53.7803 42.2455 53.6463 42.1723 53.5372 42.12C53.3089 41.9945 53.0756 41.8742 52.8424 41.7487C50.4553 40.4153 48.5894 38.7316 47.2991 36.7393C46.8624 36.0647 46.5597 35.4582 46.3463 34.9614C46.2371 34.6268 46.2421 34.4385 46.3215 34.266C46.381 34.1352 46.5398 33.9993 46.6291 33.9313C47.041 33.6437 47.4629 33.3561 47.7507 33.1626C48.2619 32.8123 48.6688 32.5351 48.9268 32.3469C49.9095 31.6253 50.5943 30.8566 51.0211 29.9991C51.6265 28.7911 51.701 27.4107 51.2345 26.1139C50.5893 24.3151 48.9715 23.1961 47.0162 23.1961C46.6093 23.1961 46.1974 23.2431 45.7904 23.3372C45.6813 23.3634 45.5771 23.3895 45.4728 23.4157C45.4927 22.1921 45.4629 20.8848 45.3587 19.6089C44.9915 15.1119 43.4977 12.7536 41.9394 10.8764C41.2893 10.0921 40.1578 8.9469 38.4606 7.92201C36.0934 6.48925 33.4136 5.76764 30.4906 5.76764C27.5775 5.76764 24.8977 6.48925 22.5305 7.91678C20.8233 8.94167 19.6918 10.0921 19.0467 10.8712C17.4884 12.7484 15.9947 15.1067 15.6274 19.6037C15.5232 20.8796 15.4984 22.1869 15.5133 23.4104C15.4091 23.3843 15.2999 23.3582 15.1957 23.332C14.7887 23.2379 14.3719 23.1908 13.9699 23.1908C12.0146 23.1908 10.3968 24.3098 9.75163 26.1086C9.28514 27.4054 9.35958 28.7859 9.96503 29.9938C10.3918 30.8514 11.0816 31.6201 12.0593 32.3417C12.3223 32.5351 12.7243 32.8123 13.2354 33.1574C13.5133 33.3456 13.9153 33.6228 14.3123 33.8999C14.3719 33.9418 14.5853 34.1091 14.6597 34.266C14.7441 34.4437 14.7441 34.6372 14.62 34.9928C14.4116 35.4791 14.1088 36.0752 13.6821 36.7341C12.4166 38.6845 10.6052 40.3369 8.29757 41.6546C7.0718 42.3396 5.80136 42.7945 5.26539 44.3319C4.85845 45.4927 5.12643 46.8157 6.15371 47.9295C6.49117 48.3112 6.91795 48.6511 7.45392 48.9648C8.71444 49.6969 9.78637 50.0577 10.63 50.3034C10.7789 50.3505 11.1213 50.4655 11.2702 50.6067C11.6474 50.9518 11.5928 51.4748 12.094 52.2382C12.3967 52.714 12.7441 53.0382 13.0319 53.2474C14.0791 54.0108 15.2602 54.0579 16.5108 54.1102C17.6373 54.1573 18.9177 54.2095 20.3767 54.7168C20.9821 54.9259 21.6124 55.3338 22.3369 55.8044C24.0838 56.9391 26.4807 58.4869 30.4856 58.4869C34.4954 58.4869 36.9023 56.9286 38.6641 55.7939C39.3886 55.3286 40.0139 54.9207 40.5995 54.7168C42.0585 54.2095 43.3389 54.1573 44.4654 54.1102C45.716 54.0579 46.8922 54.0108 47.9442 53.2474C48.2718 53.0069 48.6886 52.6147 49.0162 52.0186C49.3735 51.3754 49.3685 50.9205 49.706 50.612C49.8449 50.4865 50.1477 50.3767 50.3114 50.3244C51.16 50.0786 52.2469 49.7178 53.5322 48.97C54.1029 48.6406 54.5446 48.2798 54.8969 47.8667C54.9019 47.8615 54.9068 47.8563 54.9118 47.851C55.8696 46.7529 56.1128 45.4718 55.7158 44.3371ZM52.1575 46.3503C49.9839 47.6157 48.5398 47.4798 47.4182 48.238C46.4654 48.8864 47.0261 50.2825 46.3363 50.7845C45.4828 51.4068 42.9667 50.7427 39.7162 51.8722C37.0363 52.8082 35.3242 55.4907 30.4955 55.4907C25.6569 55.4907 23.9945 52.8186 21.2749 51.8722C18.0244 50.7427 15.5034 51.4068 14.6547 50.7845C13.9649 50.2825 14.5257 48.8864 13.5729 48.238C12.4513 47.4745 11.0072 47.6105 8.83354 46.3503C7.44896 45.545 8.23306 45.0482 8.69459 44.8129C16.5654 40.8023 17.8159 34.6006 17.8755 34.1352C17.945 33.5809 18.0194 33.1417 17.4388 32.5717C16.878 32.0227 14.3818 30.3965 13.692 29.8892C12.5456 29.0474 12.0444 28.2055 12.4166 27.1701C12.6746 26.4538 13.3099 26.1871 13.9798 26.1871C14.1882 26.1871 14.4016 26.2132 14.6051 26.2603C15.8607 26.5479 17.0815 27.212 17.7862 27.3898C17.8854 27.4159 17.9698 27.4264 18.0442 27.4264C18.4214 27.4264 18.5504 27.2277 18.5256 26.7727C18.4462 25.3243 18.2477 22.5006 18.4661 19.8599C18.7638 16.231 19.8755 14.4322 21.1955 12.8373C21.8307 12.0739 24.8083 8.75865 30.5005 8.75865C36.2076 8.75865 39.1703 12.0739 39.8055 12.8373C41.1256 14.4269 42.2372 16.2257 42.5349 19.8599C42.7533 22.5006 42.5647 25.3243 42.4754 26.7727C42.4456 27.2486 42.5846 27.4264 42.9568 27.4264C43.0312 27.4264 43.1205 27.4159 43.2148 27.3898C43.9195 27.212 45.1403 26.5479 46.3959 26.2603C46.5994 26.2132 46.8128 26.1871 47.0212 26.1871C47.6911 26.1871 48.3264 26.459 48.5844 27.1701C48.9566 28.2055 48.4504 29.0474 47.309 29.8892C46.6192 30.3965 44.123 32.0227 43.5622 32.5717C42.9816 33.1365 43.056 33.5757 43.1255 34.1352C43.1801 34.6006 44.4356 40.8023 52.3064 44.8129C52.7531 45.0482 53.5421 45.545 52.1575 46.3503Z" fill="black"/>
</svg>
