<svg width="61" height="65" viewBox="0 0 61 65" fill="none" xmlns="http://www.w3.org/2000/svg">
<path fill-rule="evenodd" clip-rule="evenodd" d="M55.8994 32.3818C55.8994 47.168 44.5235 59.1545 30.4906 59.1545C16.4577 59.1545 5.08179 47.168 5.08179 32.3818C5.08179 17.5956 16.4577 5.60907 30.4906 5.60907C44.5235 5.60907 55.8994 17.5956 55.8994 32.3818ZM31.4011 25.3739C28.9297 26.457 23.9904 28.6988 16.5833 32.0992C15.3804 32.6032 14.7504 33.0962 14.693 33.5783C14.5961 34.3931 15.5644 34.7139 16.883 35.1508C17.0624 35.2103 17.2483 35.2718 17.4388 35.3371C18.7361 35.7814 20.4812 36.3013 21.3885 36.3219C22.2114 36.3407 23.1299 35.9832 24.144 35.2495C31.0647 30.327 34.6372 27.8389 34.8615 27.7853C35.0198 27.7475 35.239 27.6999 35.3876 27.839C35.5362 27.9782 35.5216 28.2417 35.5058 28.3124C35.4099 28.7433 31.6088 32.4668 29.6417 34.3938C29.0285 34.9945 28.5935 35.4206 28.5046 35.5179C28.3054 35.7359 28.1024 35.9421 27.9073 36.1403C26.702 37.3645 25.7982 38.2826 27.9573 39.7818C28.9949 40.5022 29.8252 41.098 30.6535 41.6924C31.5581 42.3415 32.4604 42.9889 33.6277 43.7952C33.9251 44.0006 34.2092 44.214 34.4859 44.4218C35.5386 45.2126 36.4844 45.9231 37.6529 45.8098C38.3318 45.7439 39.0331 45.0712 39.3893 43.0649C40.2311 38.3235 41.8856 28.0501 42.268 23.8167C42.3015 23.4458 42.2594 22.9711 42.2255 22.7627C42.1917 22.5544 42.1209 22.2575 41.8639 22.0377C41.5595 21.7774 41.0895 21.7225 40.8793 21.7263C39.9236 21.7442 38.4574 22.2814 31.4011 25.3739Z" fill="black"/>
</svg>
