<svg width="61" height="65" viewBox="0 0 61 65" fill="none" xmlns="http://www.w3.org/2000/svg">
<path d="M42.7422 14.0007C40.8795 11.7506 39.7596 8.81657 39.7596 5.60907H37.4255C38.0266 9.11495 40.0073 12.1236 42.7422 14.0007Z" fill="black"/>
<path d="M21.1447 32.1268C17.1011 32.1268 13.812 35.5955 13.812 39.8597C13.812 42.8311 15.4153 45.4169 17.7495 46.7098C16.8772 45.4418 16.3584 43.8878 16.3584 42.1969C16.3584 37.9327 19.6475 34.4641 23.6912 34.4641C24.4457 34.4641 25.1765 34.6008 25.8603 34.8246V25.426C25.1529 25.3265 24.4339 25.2642 23.6912 25.2642C23.5615 25.2642 23.4436 25.2767 23.3139 25.2767V32.4874C22.6183 32.2636 21.8992 32.1268 21.1447 32.1268Z" fill="black"/>
<path d="M49.3554 18.1282V25.2767C44.8285 25.2767 40.6316 23.7476 37.2127 21.1616V39.8721C37.2127 49.2087 30.0099 56.8173 21.1445 56.8173C17.7257 56.8173 14.5428 55.6734 11.9374 53.7465C14.8728 57.0658 19.0579 59.1545 23.691 59.1545C32.5444 59.1545 39.7592 51.5584 39.7592 42.2094V23.4989C43.178 26.0849 47.3748 27.6139 51.9018 27.6139V18.4143C51.0176 18.4143 50.1688 18.3147 49.3554 18.1282Z" fill="black"/>
<path d="M37.2127 39.8721V21.1616C40.6316 23.7476 44.8285 25.2767 49.3554 25.2767V18.1282C46.7382 17.544 44.4398 16.0521 42.7422 14.0007C40.0071 12.1236 38.0381 9.11495 37.4132 5.60907H31.0236L31.0118 42.4952C30.8705 46.6227 27.6402 49.9422 23.691 49.9422C21.2389 49.9422 19.0815 48.6617 17.7376 46.7223C15.4033 45.4169 13.8001 42.8435 13.8001 39.8721C13.8001 35.6079 17.0892 32.1393 21.1328 32.1393C21.8872 32.1393 22.6182 32.276 23.3019 32.4998V25.2891C14.6253 25.4881 7.62268 32.9971 7.62268 42.2094C7.62268 46.6601 9.26134 50.7131 11.9374 53.7465C14.5428 55.6734 17.7257 56.8173 21.1445 56.8173C29.998 56.8173 37.2127 49.2087 37.2127 39.8721Z" fill="black"/>
</svg>
