<svg width="61" height="65" viewBox="0 0 61 65" fill="none" xmlns="http://www.w3.org/2000/svg">
<path d="M54.8195 32.7297C54.8195 30.9671 54.6713 29.2938 54.4172 27.6652H30.4906V37.7272H44.1902C43.5761 41.0292 41.7763 43.818 39.1084 45.7144V52.4076H47.2816C52.0669 47.7447 54.8195 40.873 54.8195 32.7297Z" fill="black"/>
<path d="M30.4906 15.9521C34.2384 15.9521 37.5839 17.313 40.2306 19.968L47.4721 12.3378C43.0891 8.00952 37.351 5.35455 30.4906 5.35455C20.56 5.35455 11.9845 11.3784 7.81323 20.1242L16.2405 27.0182C18.252 20.6596 23.8631 15.9521 30.4906 15.9521Z" fill="black"/>
<path fill-rule="evenodd" clip-rule="evenodd" d="M30.4906 58.9C20.56 58.9 11.9845 52.8761 7.81323 44.1304L16.2405 37.2364C18.252 43.5949 23.8631 48.3025 30.4906 48.3025C33.9208 48.3025 36.8216 47.3208 39.1084 45.7144L47.2816 52.4076C43.0891 56.4905 37.351 58.9 30.4906 58.9ZM16.2405 27.0182V20.1242H7.81323L16.2405 27.0182Z" fill="black"/>
<path d="M7.81323 37.2364H16.2405C15.7111 35.63 15.4359 33.9121 15.4359 32.1273C15.4359 30.3424 15.7323 28.6245 16.2405 27.0182L7.81323 20.1242C6.07696 23.7385 5.08179 27.799 5.08179 32.1273C5.08179 36.4555 6.07696 40.5161 7.81323 44.1304V37.2364Z" fill="black"/>
<path d="M16.2405 37.2364H7.81323V44.1304L16.2405 37.2364Z" fill="black"/>
</svg>
