<svg width="61" height="65" viewBox="0 0 61 65" fill="none" xmlns="http://www.w3.org/2000/svg">
<path fill-rule="evenodd" clip-rule="evenodd" d="M30.4906 5.35455C23.5896 5.35455 22.7257 5.3849 20.0154 5.51519C17.3102 5.64548 15.4621 6.09884 13.8461 6.76101C12.1522 7.43212 10.6158 8.48518 9.34538 9.8488C8.0533 11.1859 7.05327 12.8036 6.4149 14.5894C5.78985 16.2921 5.3579 18.2412 5.23424 21.0916C5.11228 23.9455 5.08179 24.854 5.08179 32.1273C5.08179 39.4005 5.11058 40.309 5.23424 43.1648C5.3579 46.0152 5.78815 47.9625 6.4166 49.6652C7.05351 51.4501 8.05292 53.0689 9.34708 54.4075C10.6161 55.7689 12.1514 56.8227 13.8461 57.4953C15.4621 58.1557 17.3102 58.6091 20.0154 58.7394C22.7257 58.8697 23.5896 58.9 30.4906 58.9C37.3916 58.9 38.2555 58.8697 40.9658 58.7394C43.671 58.6091 45.5191 58.1557 47.1351 57.4935C48.829 56.8224 50.3654 55.7694 51.6358 54.4058C52.9279 53.0687 53.9279 51.451 54.5663 49.6652C55.193 47.9625 55.6233 46.0152 55.7469 43.1648C55.8706 40.309 55.8994 39.3988 55.8994 32.1273C55.8994 24.8558 55.8706 23.9455 55.7469 21.0898C55.6233 18.2394 55.193 16.2921 54.5646 14.5894C53.9267 12.8028 52.9266 11.1844 51.6341 9.84702C50.3651 8.48557 48.8298 7.43186 47.1351 6.75923C45.5191 6.10062 43.6693 5.64548 40.9641 5.51519C38.2555 5.38668 37.3933 5.35455 30.4906 5.35455ZM30.4906 10.179C37.2747 10.179 38.0794 10.2058 40.7591 10.3343C43.2356 10.4539 44.5806 10.8876 45.4767 11.257C46.6624 11.7407 47.5094 12.3226 48.3987 13.2579C49.288 14.1949 49.8386 15.0873 50.2976 16.3367C50.6465 17.2809 51.0599 18.6981 51.1734 21.3075C51.2953 24.1312 51.3207 24.979 51.3207 32.1273C51.3207 39.2756 51.2953 40.1234 51.1734 42.947C51.0599 45.5565 50.6482 46.9737 50.2976 47.9178C49.8909 49.0807 49.2421 50.1328 48.3987 50.9967C47.579 51.8855 46.5805 52.5693 45.4767 52.9975C44.5806 53.3652 43.2356 53.8007 40.7591 53.9203C38.0794 54.0488 37.2764 54.0756 30.4906 54.0756C23.7047 54.0756 22.9018 54.0488 20.222 53.9203C17.7455 53.8007 16.4006 53.367 15.5045 52.9975C14.4008 52.569 13.4023 51.8853 12.5825 50.9967C11.7392 50.1327 11.0903 49.0807 10.6836 47.9178C10.3346 46.9737 9.92132 45.5565 9.80782 42.947C9.68586 40.1234 9.66045 39.2756 9.66045 32.1273C9.66045 24.979 9.68586 24.1312 9.80782 21.3075C9.92132 18.6981 10.3329 17.2809 10.6836 16.3367C11.1426 15.0873 11.6949 14.1949 12.5825 13.2579C13.4022 12.3691 14.4007 11.6854 15.5045 11.257C16.4006 10.8894 17.7455 10.4539 20.222 10.3343C22.9018 10.2058 23.7064 10.179 30.4906 10.179Z" fill="black"/>
<path fill-rule="evenodd" clip-rule="evenodd" d="M30.4906 41.0604C29.3773 41.0604 28.2748 40.8294 27.2462 40.3805C26.2176 39.9315 25.283 39.2735 24.4957 38.444C23.7085 37.6145 23.084 36.6297 22.6579 35.5459C22.2319 34.462 22.0126 33.3004 22.0126 32.1273C22.0126 30.9542 22.2319 29.7925 22.6579 28.7087C23.084 27.6249 23.7085 26.6401 24.4957 25.8106C25.283 24.9811 26.2176 24.323 27.2462 23.8741C28.2748 23.4252 29.3773 23.1941 30.4906 23.1941C32.7392 23.1941 34.8956 24.1353 36.4855 25.8106C38.0755 27.4859 38.9687 29.7581 38.9687 32.1273C38.9687 34.4965 38.0755 36.7687 36.4855 38.444C34.8956 40.1193 32.7392 41.0604 30.4906 41.0604ZM30.4906 18.3661C27.0269 18.3661 23.705 19.8159 21.2557 22.3967C18.8065 24.9774 17.4305 28.4776 17.4305 32.1273C17.4305 35.777 18.8065 39.2772 21.2557 41.8579C23.705 44.4386 27.0269 45.8885 30.4906 45.8885C33.9544 45.8885 37.2763 44.4386 39.7255 41.8579C42.1748 39.2772 43.5508 35.777 43.5508 32.1273C43.5508 28.4776 42.1748 24.9774 39.7255 22.3967C37.2763 19.8159 33.9544 18.3661 30.4906 18.3661ZM47.3502 18.1162C47.3502 18.9789 47.025 19.8063 46.446 20.4164C45.8671 21.0264 45.0818 21.3691 44.2631 21.3691C43.4443 21.3691 42.659 21.0264 42.0801 20.4164C41.5011 19.8063 41.1759 18.9789 41.1759 18.1162C41.1759 17.2535 41.5011 16.4261 42.0801 15.8161C42.659 15.206 43.4443 14.8633 44.2631 14.8633C45.0818 14.8633 45.8671 15.206 46.446 15.8161C47.025 16.4261 47.3502 17.2535 47.3502 18.1162Z" fill="black"/>
</svg>
