<svg width="61" height="65" viewBox="0 0 61 65" fill="none" xmlns="http://www.w3.org/2000/svg">
<path d="M5.08179 58.9L8.66829 45.1633C6.46459 41.1335 5.30732 36.5631 5.31298 31.9121C5.28746 17.2564 16.5829 5.35455 30.4651 5.35455C37.2027 5.35455 43.529 8.10696 48.2925 13.1277C50.6404 15.5889 52.5015 18.5165 53.7678 21.7409C55.0341 24.9654 55.6806 28.4225 55.6697 31.9121C55.6697 46.5395 44.3742 58.4413 30.4906 58.4413C26.2645 58.4413 22.1406 57.334 18.452 55.2032L5.08179 58.9ZM19.042 50.4261L19.8106 50.9117C23.0369 52.9232 26.7163 53.9857 30.4651 53.9884C41.9917 53.9884 51.3926 44.0844 51.3926 31.9375C51.3926 26.0546 49.2158 20.496 45.2705 16.3405C43.3304 14.2847 41.0234 12.6538 38.4823 11.5418C35.9413 10.4297 33.2165 9.85859 30.4651 9.86123C18.9129 9.86281 9.515 19.7667 9.515 31.9137C9.515 36.0692 10.6169 40.1456 12.7172 43.6542L13.2036 44.491L11.0778 52.6406L19.0435 50.4276L19.042 50.4261Z" fill="black"/>
<path fill-rule="evenodd" clip-rule="evenodd" d="M24.1898 20.7934C23.7289 19.6861 23.217 19.6592 22.7816 19.6592C22.3973 19.6323 21.986 19.6323 21.5506 19.6323C21.1423 19.6323 20.4502 19.7936 19.8617 20.4691C19.2717 21.1429 17.6593 22.7359 17.6593 26.0008C17.6593 29.2673 19.9127 32.4247 20.2205 32.8565C20.5267 33.2884 24.5741 40.1963 30.9785 42.8696C36.305 45.0826 37.3814 44.6507 38.5343 44.5147C39.6858 44.3802 42.2484 42.9234 42.7859 41.3573C43.2978 39.8198 43.2978 38.4705 43.1447 38.2C42.9916 37.9311 42.5547 37.7681 41.9407 37.417C41.2997 37.0943 38.2266 35.4745 37.6381 35.2577C37.0481 35.0426 36.6382 34.9351 36.2284 35.582C35.8186 36.2575 34.6145 37.7412 34.2317 38.1731C33.8714 38.6049 33.4886 38.6587 32.8731 38.3344C32.2336 38.0117 30.2099 37.3094 27.8018 35.0426C25.9313 33.2868 24.6762 31.1022 24.2919 30.4553C23.9346 29.7798 24.2409 29.4287 24.5741 29.1044C24.8564 28.8086 25.2152 28.3229 25.5229 27.9449C25.8292 27.5652 25.9313 27.2694 26.1625 26.8376C26.3666 26.4057 26.2645 26.0008 26.1114 25.6781C25.9568 25.3807 24.7543 22.1142 24.1898 20.7918V20.7934Z" fill="black"/>
</svg>
